/* XPM */
static char *XPM_icon[] = {
"24 16 4 1 12 8",
"  c None",
". c #73c936",
"Y c #f0c674",
"w c #707880",
"                        ",
" wwwwwwwwwwwwwwwwwwww   ",
" w                  w   ",
" w ................ w   ",
" w ..           ... www ",
" w .  YYYYYYYYY ...   w ",
" w . YYYYYYYYY  ...   w ",
" w ..     YYY  ....   w ",
" w ....  YYY      .   w ",
" w ...  YYYYYYYYY .   w ",
" w ... YYYYYYYYY  .   w ",
" w ...           .. www ",
" w ................ w   ",
" w                  w   ",
" wwwwwwwwwwwwwwwwwwww   ",
"                        ",
};
