/* XPM */
static char *XPM_icon[] = {
"24 16 3 1 12 8",
"  c None",
". c #70c0b1",
"w c #707880",
"                        ",
" wwwwwwwwwwwwwwwwwwww   ",
" w                  w   ",
" w ................ w   ",
" w ................ www ",
" w ................   w ",
" w ................   w ",
" w ................   w ",
" w ................   w ",
" w ................   w ",
" w ................   w ",
" w ................ www ",
" w ................ w   ",
" w                  w   ",
" wwwwwwwwwwwwwwwwwwww   ",
"                        ",
};
