/* XPM */
static char *_4f1d7ac74cf44d09cf95c3284fe480ezJ80qkTgLLob314S[] = {
/* columns rows colors chars-per-pixel */
"21 21 2 1 ",
"  c None",
". c #000000",
/* pixels */
"                     ",
"         ..          ",
"        ...          ",
"       ....          ",
"      .....          ",
"     ......          ",
" ..........  .       ",
" ..........   .      ",
" ............ ..     ",
" ............  .     ",
" ............  .     ",
" ............  .     ",
" ............ ..     ",
" ..........   .      ",
" ..........  .       ",
"     ......          ",
"      .....          ",
"       ....          ",
"        ...          ",
"         ..          ",
"                     "
};
