/* XPM */
static char *_49232efe6e146f5a9bf1ae5a25bda697q91cfoaeDiqMFXC[] = {
/* columns rows colors chars-per-pixel */
"20 18 2 1 ",
"  c None",
". c #60bb46",
/* pixels */
"      ........      ",
"    ............    ",
"  .....      .....  ",
" ...            ... ",
"...    ......    ...",
"     ..........     ",
"   ....      ....   ",
"   ..          ..   ",
"        ....        ",
"      ........      ",
"      ..    ..      ",
"                    ",
"                    ",
"         ..         ",
"        ....        ",
"         ..         ",
"                    ",
"                    "
};
