/* XPM */
static char *XPM_icon[] = {
"24 16 3 1 12 8",
"  c None",
". c #cc8c3c",
"w c #000000",
"                        ",
" wwwwwwwwwwwwwwwwwwww   ",
" w                  w   ",
" w ........         w   ",
" w ........         www ",
" w ........           w ",
" w ........           w ",
" w ........           w ",
" w ........           w ",
" w ........           w ",
" w ........           w ",
" w ........         www ",
" w ........         w   ",
" w                  w   ",
" wwwwwwwwwwwwwwwwwwww   ",
"                        ",
};
