/* XPM */
static char *bd7a19183e9a463db8f996d9b8a6cc9aa8Jl90RHMjMPTyGt[] = {
/* columns rows colors chars-per-pixel */
"20 20 3 1 ",
"  c None",
". c #9e95c7",
", c #888888",
/* pixels */
"                    ",
"      ........      ",
"    ....    ....    ",
"   ..          ..   ",
"  ..     .,     ..  ",
" ..      .,      .. ",
" .       .,       . ",
"..       .,       ..",
"..       .,       ..",
"..       .,,,,,   ..",
"..       ......   ..",
"..                ..",
"..                ..",
" .                . ",
" ..              .. ",
"  ..            ..  ",
"   ..          ..   ",
"    ....    ....    ",
"      ........      ",
"                    "
};
