/* XPM */
static char *a8f06504bace46f7e8aaa7b09434a0d4LsgwE3lDpEWCC3q2[] = {
/* columns rows colors chars-per-pixel */
"20 20 2 1 ",
"  c None",
". c #cc8c3c",
/* pixels */
"                    ",
"       ......       ",
"    ............    ",
"   ..............   ",
"   ..............   ",
"   ..............   ",
"    ............    ",
"   .            .   ",
"   ..............   ",
"   ..............   ",
"     ..........     ",
"   ..          ..   ",
"   ..............   ",
"    ............    ",
"   .  ........  .   ",
"   ...        ...   ",
"   ..............   ",
"    ............    ",
"       ......       ",
"                    "
};
