/* XPM */
static char *_4fb197984f34a31bc0788f989e1959f3qURzh0p7tmlUqsp[] = {
/* columns rows colors chars-per-pixel */
"21 21 3 1 ",
"  c None",
". c white",
"x c #FF0000",
/* pixels */
"                     ",
"         ..          ",
"        ...          ",
"       ....          ",
"      .....          ",
"     ......          ",
" ..........          ",
" ..........   x   x  ",
" ..........  xxx xxx ",
" ..........   xxxxx  ",
" ..........    xxx   ",
" ..........   xxxxx  ",
" ..........  xxx xxx ",
" ..........   x   x  ",
" ..........          ",
"     ......          ",
"      .....          ",
"       ....          ",
"        ...          ",
"         ..          ",
"                     "
};
